<svg width="40" height="32" viewBox="0 0 40 32" fill="none" xmlns="http://www.w3.org/2000/svg">
<path d="M22.513 32L22.513 13.824C22.513 1.536 33.755 5.90191e-06 33.755 5.90191e-06L35.255 3.58401C35.255 3.58401 30.255 4.35201 29.255 8.44801C28.9843 9.40121 28.9337 10.4034 29.1069 11.3791C29.2802 12.3547 29.6727 13.2782 30.255 14.08L40 14.08L40 32L22.513 32ZM-5.59506e-06 32L-2.41706e-06 13.824C-2.68563e-07 1.536 11.242 1.96561e-06 11.242 1.96561e-06L12.742 3.584C12.742 3.584 7.742 4.352 6.742 8.448C6.47134 9.40121 6.42071 10.4034 6.59394 11.3791C6.76717 12.3547 7.15973 13.2782 7.742 14.08L17.485 14.08L17.485 32L-5.59506e-06 32Z" fill="#008890"/>
</svg>
