<svg width="40" height="32" viewBox="0 0 40 32" fill="none" xmlns="http://www.w3.org/2000/svg">
<path d="M17.487 0L17.487 18.176C17.487 30.464 6.245 32 6.245 32L4.745 28.416C4.745 28.416 9.745 27.648 10.745 23.552C11.0157 22.5988 11.0663 21.5966 10.8931 20.6209C10.7198 19.6453 10.3273 18.7218 9.745 17.92L0 17.92L0 0H17.487ZM40 0L40 18.176C40 30.464 28.758 32 28.758 32L27.258 28.416C27.258 28.416 32.258 27.648 33.258 23.552C33.5287 22.5988 33.5793 21.5966 33.4061 20.6209C33.2328 19.6453 32.8403 18.7218 32.258 17.92H22.515L22.515 0L40 0Z" fill="#008890"/>
</svg>
