<svg xmlns="http://www.w3.org/2000/svg" xmlns:xlink="http://www.w3.org/1999/xlink" width="1920" height="800" viewBox="0 0 1920 800">
  <defs>
    <linearGradient id="linear-gradient" x1="0.5" x2="0.5" y2="1" gradientUnits="objectBoundingBox">
      <stop offset="0" stop-color="#201966" stop-opacity="0.851"/>
      <stop offset="1" stop-color="#141040"/>
    </linearGradient>
  </defs>
  <g id="Grupo_354" data-name="Grupo 354" transform="translate(3468 -5583)">
    <rect id="Rectángulo_325" data-name="Rectángulo 325" width="1920" height="800" transform="translate(-3468 5583)" fill="none"/>
    <g id="Trazado_439" data-name="Trazado 439" transform="translate(-3047.539 5583)" fill="url(#linear-gradient)">
      <path d="M 1094.0947265625 799.5 C 1081.2900390625 799.5 1066.87548828125 797.8576049804688 1051.251342773438 794.6187133789063 C 1038.743286132813 792.0258178710938 1025.437866210938 788.4099731445313 1011.70458984375 783.8714599609375 C 988.3348999023438 776.1481323242188 971.6061401367188 768.3236083984375 971.4096069335938 768.2313232421875 L 59.74638748168945 325.8236389160156 L 59.74111557006836 325.8210754394531 L 59.73583984375 325.8187255859375 C 59.65111541748047 325.7799987792969 51.14366149902344 321.8601684570313 40.93584060668945 314.5214538574219 C 34.94638824462891 310.2154541015625 29.55166053771973 305.5919799804688 24.90184211730957 300.7796325683594 C 19.09802436828613 294.7728881835938 14.44565963745117 288.4538269042969 11.07384204864502 281.9979858398438 C 7.698750972747803 275.5359802246094 5.040750980377197 267.85400390625 3.173659801483154 259.1654357910156 C 1.677841663360596 252.2043609619141 0.6838417053222656 244.5865325927734 0.2192962467670441 236.5239868164063 C -0.5719764828681946 222.7919921875 0.4627507925033569 212.4085388183594 0.4732962548732758 212.3052673339844 L 0.4758417010307312 212.2799987792969 L 0.4758417010307312 212.2545318603516 L 0.4758417010307312 0.4999938309192657 L 1498.91943359375 0.4999938309192657 L 1498.91943359375 581.3934326171875 L 1197.813110351563 768.2587280273438 L 1197.805053710938 768.2637939453125 L 1197.797241210938 768.2691040039063 C 1197.768920898438 768.2881469726563 1194.91259765625 770.207275390625 1189.848022460938 773.0440063476563 C 1185.174560546875 775.66162109375 1177.611328125 779.6181640625 1168.12060546875 783.6021728515625 C 1157.45654296875 788.0785522460938 1146.581665039063 791.676513671875 1135.79833984375 794.29638671875 C 1122.325073242188 797.5694580078125 1108.95751953125 799.3157958984375 1096.066772460938 799.4868774414063 C 1095.416625976563 799.49560546875 1094.753173828125 799.5 1094.0947265625 799.5 Z" stroke="none"/>
      <path d="M 0.9757080078125 1 L 0.9757080078125 212.254638671875 L 0.9757080078125 212.3056030273438 L 0.9705810546875 212.356201171875 C 0.9600830078125 212.458984375 -0.0704345703125 222.8026123046875 0.7183837890625 236.4952392578125 C 1.1815185546875 244.5322265625 2.171875 252.1242065429688 3.6624755859375 259.0602416992188 C 5.5198974609375 267.7050170898438 8.1627197265625 275.3444213867188 11.5169677734375 281.7664184570313 C 14.86474609375 288.1763916015625 19.4859619140625 294.4532165527344 25.2520751953125 300.422607421875 C 29.8785400390625 305.2120056152344 35.247314453125 309.8146057128906 41.2093505859375 314.1024169921875 C 51.38037109375 321.4172058105469 59.859130859375 325.3252258300781 59.9434814453125 325.3638000488281 L 59.9541015625 325.3686218261719 L 59.9644775390625 325.3738098144531 L 971.6239624023438 767.7796630859375 C 971.8982543945313 767.9083862304688 988.5863037109375 775.7054443359375 1011.87451171875 783.4010009765625 C 1025.588134765625 787.9324340820313 1038.873168945313 791.5426025390625 1051.360717773438 794.1307983398438 C 1066.948486328125 797.36181640625 1081.326293945313 799 1094.094970703125 799 C 1094.758544921875 799 1095.419555664063 798.99560546875 1096.059936523438 798.9869995117188 C 1108.908203125 798.8165893554688 1122.23291015625 797.0762329101563 1135.664306640625 793.814208984375 C 1146.419189453125 791.202392578125 1157.265747070313 787.6148071289063 1167.903076171875 783.1510009765625 C 1177.372924804688 779.1771850585938 1184.919921875 775.230224609375 1189.58349609375 772.6188354492188 C 1194.638549804688 769.7883911132813 1197.489501953125 767.8734130859375 1197.517578125 767.8546142578125 L 1197.533325195313 767.843994140625 L 1197.54931640625 767.833984375 L 1498.419311523438 581.1152954101563 L 1498.419311523438 1 L 0.9757080078125 1 M -0.0242919921875 0 L 1499.419311523438 0 L 1499.419311523438 581.671630859375 L 1198.07666015625 768.68359375 C 1198.07666015625 768.68359375 1152.774658203125 799.2341918945313 1096.073120117188 799.9869995117188 C 1095.41552734375 799.9957275390625 1094.755493164063 800.0000610351563 1094.094970703125 800.0000610351563 C 1037.798828125 800.0000610351563 971.1963500976563 768.68359375 971.1963500976563 768.68359375 L 59.5279541015625 326.2734069824219 C 59.5279541015625 326.2734069824219 25.5185546875 310.7340087890625 10.6304931640625 282.2294311523438 C -4.2576904296875 253.724609375 -0.0242919921875 212.254638671875 -0.0242919921875 212.254638671875 L -0.0242919921875 0 Z" stroke="none" fill="#707070"/>
    </g>
  </g>
</svg>
